# AST/ASF file generated using VICON BodyLanguage
# -----------------------------------------------
:version 1.10
:name VICON
:units
  mass 1.0
  length 0.45
  angle deg
:documentation
   .ast/.asf automatically generated from VICON data using
   VICON BodyBuilder and BodyLanguage model FoxedUp or BRILLIANT.MOD
:root
   order TX TY TZ RX RY RZ
   axis XYZ
   position 0 0 0  
   orientation 0 0 0 
:bonedata
  begin
     id 1 
     name lhipjoint
     direction 0.521452 -0.77106 0.36545 
     length 2.0933 
     axis 0 0 0  XYZ
  end
  begin
     id 2 
     name lfemur
     direction 0.34202 -0.939693 0  
     length 6.83441  
     axis 0 0 20  XYZ
    dof rx ry rz
    limits (-160.0 20.0)
           (-70.0 70.0)
           (-60.0 70.0)
  end
  begin
     id 3 
     name ltibia
     direction 0.34202 -0.939693 0   
     length 7.28749   
     axis 0 0 20   XYZ
    dof rx
    limits (-10.0 170.0)
  end
  begin
     id 4 
     name lfoot
     direction 0.100608 -0.276418 0.955757   
     length 1.52195   
     axis -90 7.62852e-016 20   XYZ
    dof rx rz
    limits (-45.0 90.0)
           (-70.0 20.0)
  end
  begin
     id 5 
     name ltoes
     direction 1.53558e-011 -4.21907e-011 1   
     length 0.770459   
     axis -90 7.62852e-016 20   XYZ
    dof rx
    limits (-90.0 20.0)
  end
  begin
     id 6 
     name rhipjoint
     direction -0.488071 -0.788702 0.373812   
     length 2.04648  
     axis 0 0 0  XYZ 
  end
  begin
     id 7 
     name rfemur
     direction -0.34202 -0.939693 0   
     length 6.92583   
     axis 0 0 -20   XYZ
    dof rx ry rz
    limits (-160.0 20.0)
           (-70.0 70.0)
           (-70.0 60.0)
  end
  begin
     id 8 
     name rtibia
     direction -0.34202 -0.939693 0   
     length 7.41043   
     axis 0 0 -20   XYZ
    dof rx
    limits (-10.0 170.0)
 end
 begin
     id 9 
     name rfoot
     direction -0.0784433 -0.215521 0.973343   
     length 1.67708  
     axis -90 -7.62852e-016 -20   XYZ
    dof rx rz
    limits (-45.0 90.0)
           (-20.0 70.0)
  end
  begin
     id 10 
     name rtoes
     direction -1.53551e-011 -4.21842e-011 1   
     length 0.849787   
     axis -90 -7.62852e-016 -20   XYZ
    dof rx
    limits (-90.0 20.0)
  end
  begin
     id 11 
     name lowerback
     direction -0.0122332 0.997575 -0.0685192   
     length 1.98724   
     axis 0 0 0   XYZ
    dof rx ry rz
    limits (-20.0 45.0)
           (-30.0 30.0)
           (-30.0 30.0)
  end
  begin
     id 12 
     name upperback
     direction 0.0182347 0.999724 -0.0148421   
     length 1.99029   
     axis 0 0 0   XYZ
    dof rx ry rz
    limits (-20.0 45.0)
           (-30.0 30.0)
           (-30.0 30.0)
  end
  begin
     id 13 
     name thorax
     direction 0.0242908 0.99956 0.0170184   
     length 1.99573   
     axis 0 0 0   XYZ
    dof rx ry rz
    limits (-20.0 45.0)
           (-30.0 30.0)
           (-30.0 30.0)
  end
  begin
     id 14 
     name lowerneck
     direction 0.0654488 0.985533 0.156338   
     length 1.4285   
     axis 0 0 0   XYZ
    dof rx ry rz
    limits (-20.0 45.0)
           (-30.0 30.0)
           (-30.0 30.0)
  end
  begin
     id 15 
     name upperneck
     direction -0.02953 0.998556 -0.0448842   
     length 1.44709   
     axis 0 0 0   XYZ
    dof rx ry rz
    limits (-20.0 45.0)
           (-30.0 30.0)
           (-30.0 30.0)
  end
  begin
     id 16
     name head
     direction -0.0155588 0.999386 -0.0314063  
     length 1.44689  
     axis 0 0 0   XYZ
    dof rx ry rz
    limits (-20.0 45.0)
           (-30.0 30.0)
           (-30.0 30.0)
  end
  begin
     id 17 
     name lclavicle
     direction 0.968229 0.236071 -0.0824755  
     length 3.60593  
     axis 0 0 0   XYZ
    dof ry rz
    limits (-20.0 10.0)
           (0.0 20.0)
  end
  begin
     id 18 
     name lhumerus
     direction 1 -4.48968e-011 7.8138e-029   
     length 5.06035   
     axis 180 -30 -90   XYZ
    dof rx ry rz
    limits (-60.0 90.0)
           (-90.0 90.0)
           (-90.0 90.0)
  end
  begin
     id 19
     name lradius
     direction 1 -4.48967e-011 9.02887e-028   
     length 3.1478   
     axis 180 -30 -90   XYZ
    dof rx
    limits (-10.0 170.0)
  end
  begin
     id 20
     name lwrist
     direction 1 -4.48961e-011 7.20928e-028   
     length 1.5739   
     axis -5.52449e-016 90 90   XYZ
    dof ry
    limits (-180.0 0.0)
 end
  begin
     id 21 
     name lhand
     direction 1 -4.48972e-011 1.44186e-027   
     length 0.606747   
     axis -9.20027e-016 90 90   XYZ
    dof rx rz
    limits (-90.0 90.0)
           (-45.0 45.0)
  end
  begin
     id 22 
     name lfingers
     direction 1 -4.48943e-011 2.88371e-027   
     length 0.489175   
     axis -1.84005e-015 90 90   XYZ
    dof rx
    limits (0.0 90.0)
  end
  begin
     id 23
     name lthumb
     direction 0.707107 -6.34917e-011 0.707107   
     length 0.70236   
     axis -90 45 2.85299e-015   XYZ
    dof rx rz
    limits (-45.0 45.0)
           (-45.0 45.0)
  end
  begin
     id 24 
     name rclavicle
     direction -0.978165 0.207816 0.0022268   
     length 3.35425  
     axis 0 0 0   XYZ 
    dof ry rz
    limits (-10.0 20.0)
           (-20.0 0.0)
  end
  begin
     id 25 
     name rhumerus
     direction -1 -4.48964e-011 -4.02159e-027  
     length 5.12273   
     axis 180 30 90   XYZ
    dof rx ry rz
    limits (-90.0 60.0)
           (-90.0 90.0)
           (-90.0 90.0)
  end
  begin
     id 26 
     name rradius
     direction -1 -4.48966e-011 1.62746e-027   
     length 3.422   
     axis 180 30 90   XYZ
    dof rx
    limits (-10.0 170.0)
  end
  begin
     id 27 
     name rwrist
     direction -1 -4.4896e-011 7.20928e-028   
     length 1.711   
     axis -5.52449e-016 -90 -90   XYZ
    dof ry
    limits (-180.0 0.0)
  end
  begin
     id 28
     name rhand
     direction -1 -4.48979e-011 1.44186e-027   
     length 0.704599   
     axis -9.20027e-016 -90 -90   XYZ
    dof rx rz
    limits (-90.0 90.0)
           (-45.0 45.0)
  end
  begin
     id 29
     name rfingers
     direction -1 -4.48962e-011 2.88371e-027   
     length 0.568066   
     axis -1.84005e-015 -90 -90   XYZ
    dof rx
    limits (0.0 90.0)
  end
  begin
     id 30
     name rthumb
     direction -0.707107 -6.34949e-011 0.707107   
     length 0.815633   
     axis -90 -45 -2.85299e-015   XYZ
    dof rx rz
    limits (-45.0 45.0)
           (-45.0 45.0)
  end
:hierarchy
  begin
    root lhipjoint rhipjoint lowerback
    lhipjoint lfemur
    lfemur ltibia
    ltibia lfoot
    lfoot ltoes
    rhipjoint rfemur
    rfemur rtibia
    rtibia rfoot
    rfoot rtoes
    lowerback upperback
    upperback thorax
    thorax lowerneck lclavicle rclavicle
    lowerneck upperneck
    upperneck head
    lclavicle lhumerus
    lhumerus lradius
    lradius lwrist
    lwrist lhand lthumb
    lhand lfingers
    rclavicle rhumerus
    rhumerus rradius
    rradius rwrist
    rwrist rhand rthumb
    rhand rfingers
  end

#!OML:ASF E:\id_vita\Project 1\Capture day 1\Session 1\Male1.ASF
:FULLY-SPECIFIED
:DEGREES
143
root -2.5405 15.8599 -0.496237 479.576 83.9697 477.574
lowerback -3.93322 -3.14624 -7.54646
upperback 1.45059 -3.74752 -0.520115
thorax 4.17379 -2.03873 3.38544
lowerneck -10.8922 2.23731 4.70721
upperneck 5.74728 2.52179 -2.53374
head 3.96723 1.23987 -1.52611
rclavicle -5.42931e-015 3.37934e-015
rhumerus -38.0295 -21.9449 -72.8542
rradius 13.1451
rwrist 23.6866
rhand -20.7284 37.3676
rfingers 7.12502
rthumb 5.63659 7.46256
lclavicle -5.42931e-015 3.37934e-015
lhumerus -15.9156 10.8842 84.0899
lradius 31.128
lwrist 4.52321
lhand -11.6927 45.076
lfingers 7.12502
lthumb 14.3531 74.5598
rfemur -31.7856 -4.14588 14.1405
rtibia 46.2721
rfoot -15.0588 -2.91882
rtoes 3.26485
lfemur -3.07569 0.0772666 -27.9657
ltibia 28.0538
lfoot -26.0183 -5.23149
ltoes 38.6209
144
root -2.33387 15.8486 -0.495061 480.565 83.8585 478.506
lowerback -4.59745 -3.23037 -7.74826
upperback 1.63868 -3.78116 -0.454344
thorax 4.7717 -2.08501 3.51912
lowerneck -9.85008 2.18488 4.7619
upperneck 4.98193 2.48812 -2.54858
head 3.49105 1.2247 -1.54266
rclavicle 2.64943e-014 -1.60022e-014
rhumerus -39.2688 -24.2398 -70.4219
rradius 12.4542
rwrist 25.7163
rhand -20.5207 36.1898
rfingers 7.12502
rthumb 5.83714 6.29021
lclavicle 2.64943e-014 -1.60022e-014
lhumerus -14.9878 9.78197 84.4765
lradius 32.755
lwrist 5.56838
lhand -11.6672 45.1473
lfingers 7.12502
lthumb 14.3777 74.6294
rfemur -32.1184 -3.8348 14.0329
rtibia 43.1043
rfoot -14.7382 -3.16818
rtoes 1.8119
lfemur -1.73114 0.381079 -27.9027
ltibia 26.8514
lfoot -26.1242 -5.68401
ltoes 38.8896
145
root -2.15301 15.8518 -0.481356 488.023 83.1657 485.558
lowerback -4.12273 -3.67007 -8.01755
upperback 1.36036 -4.41109 -0.389764
thorax 4.3144 -2.38357 3.7094
lowerneck -10.475 2.35871 4.53269
upperneck 5.47408 2.70065 -2.22475
head 3.78284 1.33909 -1.3773
rclavicle 1.58717e-014 -3.77691e-015
rhumerus -40.8569 -26.6787 -67.5717
rradius 11.7547
rwrist 28.6674
rhand -20.406 34.8571
rfingers 7.12502
rthumb 5.94789 4.9606
lclavicle 1.58717e-014 -3.77691e-015
lhumerus -14.1518 9.06605 84.617
lradius 34.1217
lwrist 6.4467
lhand -11.5088 45.5369
lfingers 7.12502
lthumb 14.5303 75.008
rfemur -32.6918 -3.99115 13.7469
rtibia 39.8386
rfoot -14.0629 -3.60274
rtoes 1.73226
lfemur -0.890702 0.750087 -27.6656
ltibia 25.559
lfoot -25.6992 -7.36061
ltoes 39.7377
146
root -1.94676 15.8444 -0.482693 488.123 82.8692 485.528
lowerback -4.26866 -3.75196 -8.32445
upperback 1.25953 -4.49346 -0.365039
thorax 4.32939 -2.42969 3.89101
lowerneck -9.8288 2.3063 4.52043
upperneck 5.27084 2.66132 -2.23734
head 3.58231 1.32059 -1.38411
rclavicle -5.86912e-014 7.35503e-015
rhumerus -43.0102 -29.59 -63.7902
rradius 11.0532
rwrist 32.4413
rhand -20.5282 34.5507
rfingers 7.12502
rthumb 5.82984 4.65093
lclavicle -5.86912e-014 7.35503e-015
lhumerus -13.4798 8.03442 84.9217
lradius 35.5244
lwrist 7.35351
lhand -11.6654 45.7214
lfingers 7.12502
lthumb 14.3794 75.2033
rfemur -32.9775 -3.56888 13.2737
rtibia 36.5705
rfoot -13.4435 -3.59021
rtoes 2.70146
lfemur 0.474351 1.02562 -27.7721
ltibia 24.117
lfoot -25.6198 -7.98197
ltoes 40.1139
147
root -1.74582 15.833 -0.478313 488.498 82.5091 485.72
lowerback -4.26996 -3.81583 -8.60045
upperback 1.21572 -4.56016 -0.421277
thorax 4.31178 -2.46586 3.97957
lowerneck -9.86133 2.15737 4.63073
upperneck 5.19836 2.44627 -2.24291
head 3.55747 1.21573 -1.41941
rclavicle 2.61153e-014 -6.95746e-015
rhumerus -45.2203 -32.5953 -59.9367
rradius 10.4981
rwrist 36.1392
rhand -20.4836 34.7615
rfingers 7.12502
rthumb 5.87295 4.86285
lclavicle 2.61153e-014 -6.95746e-015
lhumerus -12.5461 7.02358 85.1098
lradius 36.7809
lwrist 8.03423
lhand -12.1724 45.004
lfingers 7.12502
lthumb 13.8909 74.5201
rfemur -33.3329 -2.99214 12.6734
rtibia 33.3961
rfoot -12.5421 -3.90861
rtoes 2.61168
lfemur 1.87075 0.952608 -27.9523
ltibia 22.4643
lfoot -25.3469 -8.20333
ltoes 40.1629
148
root -1.54079 15.8215 -0.47288 489.26 82.1193 486.293
lowerback -4.39242 -3.93496 -8.85377
upperback 1.35307 -4.67873 -0.49223
thorax 4.55865 -2.54151 4.01818
lowerneck -10.6047 2.13458 4.74538
upperneck 5.38972 2.36192 -2.18824
head 3.76928 1.17717 -1.42599
rclavicle -2.05121e-014 -2.06736e-014
rhumerus -45.099 -32.4613 -60.076
rradius 9.8337
rwrist 35.2199
rhand -20.8878 34.567
rfingers 7.12502
rthumb 5.48267 4.6579
lclavicle -2.05121e-014 -2.06736e-014
lhumerus -11.2745 6.26626 85.196
lradius 37.8966
lwrist 8.43457
lhand -12.1828 44.4563
lfingers 7.12502
lthumb 13.8808 73.9731
rfemur -33.7537 -2.30223 11.9976
rtibia 30.441
rfoot -11.4083 -4.64475
rtoes 0.538682
lfemur 3.40035 0.915307 -28.0824
ltibia 20.5985
lfoot -24.8932 -8.44223
ltoes 39.8079
149
root -1.33043 15.8145 -0.469525 490.76 81.8178 487.682
lowerback -4.46019 -4.13049 -9.09372
upperback 1.13467 -4.93009 -0.454283
thorax 4.42712 -2.66078 4.16736
lowerneck -9.97302 2.20888 4.89128
upperneck 5.49173 2.47614 -2.23374
head 3.68961 1.23861 -1.46241
rclavicle 1.48095e-014 -1.13307e-014
rhumerus -45.6271 -31.7085 -59.7903
rradius 8.97893
rwrist 34.0786
rhand -21.579 34.6327
rfingers 7.12502
rthumb 4.81525 4.70737
lclavicle 1.48095e-014 -1.13307e-014
lhumerus -10.981 5.76331 85.2241
lradius 39.0985
lwrist 8.67238
lhand -12.0186 44.3747
lfingers 7.12502
lthumb 14.0391 73.8805
rfemur -33.9894 -1.40645 11.311
rtibia 27.7381
rfoot -10.4697 -5.43028
rtoes 0.433909
lfemur 5.06639 0.998085 -28.0111
ltibia 18.6014
lfoot -24.4652 -8.79785
ltoes 39.1824
